<?xml version="1.0" standalone="no"?>
<!DOCTYPE svg PUBLIC "-//W3C//DTD SVG 20010904//EN"
 "http://www.w3.org/TR/2001/REC-SVG-20010904/DTD/svg10.dtd">
<svg version="1.0" xmlns="http://www.w3.org/2000/svg"
 width="521.000000pt" height="521.000000pt" viewBox="0 0 521.000000 521.000000"
 preserveAspectRatio="xMidYMid meet">
<metadata>
Created by potrace 1.14, written by Peter Selinger 2001-2017
</metadata>
<g transform="translate(0.000000,521.000000) scale(0.100000,-0.100000)"
fill="#000000" stroke="none">
<path d="M2450 4850 c0 -14 79 -91 134 -130 25 -18 46 -36 46 -39 0 -11 -308
-6 -320 5 -6 6 -13 24 -16 39 -8 43 -14 48 -35 29 -13 -11 -17 -24 -13 -40 4
-13 3 -24 -1 -24 -19 0 -67 46 -80 77 -11 27 -19 34 -37 31 -24 -3 -29 -30
-14 -75 6 -20 4 -22 -31 -21 -62 2 -73 -1 -73 -19 0 -20 78 -93 100 -93 11 0
11 -3 2 -12 -18 -18 -15 -56 6 -62 9 -3 43 -8 74 -11 l57 -7 11 43 c24 96 40
107 158 112 79 3 82 2 75 -18 -7 -19 -6 -57 2 -115 2 -14 4 -29 4 -33 2 -16
21 5 40 41 13 25 17 52 15 84 l-4 47 78 -4 c42 -2 84 -4 92 -4 8 -1 1 -10 -17
-19 -36 -19 -123 -99 -123 -113 0 -12 37 -11 45 1 3 6 15 10 26 10 32 0 94 36
133 78 l37 39 117 -18 c64 -10 155 -27 202 -39 47 -11 99 -23 115 -26 17 -3
40 -11 52 -18 18 -9 -1 -11 -101 -10 -106 1 -129 4 -157 21 -30 18 -48 24
-119 40 -24 5 -121 5 -127 -1 -12 -12 12 -27 73 -46 37 -11 77 -20 90 -20 47
0 23 -18 -33 -25 -69 -8 -208 -56 -277 -95 -55 -31 -99 -32 -143 -4 -32 20
-61 17 -74 -8 -7 -13 -22 -31 -33 -41 -16 -14 -21 -31 -22 -72 0 -52 0 -53 35
-65 20 -6 56 -14 81 -17 40 -4 49 -1 79 27 21 19 31 37 28 48 -17 62 -12 75
43 105 28 15 50 24 51 20 0 -5 2 -29 5 -56 2 -26 11 -64 21 -85 14 -32 17 -34
20 -15 3 14 11 22 22 20 24 -3 81 43 188 150 61 62 99 93 115 94 13 0 60 3
106 5 45 2 82 2 82 -1 0 -2 -12 -11 -27 -19 -51 -26 -143 -112 -143 -132 0
-37 129 32 200 107 38 40 39 40 92 34 54 -6 133 -34 123 -43 -3 -3 -13 -7 -23
-8 -53 -7 -159 -52 -206 -88 -17 -14 -14 -42 4 -31 5 3 30 9 56 14 39 8 57 5
98 -11 78 -31 146 -48 199 -48 36 0 49 -4 54 -17 3 -10 25 -36 49 -58 34 -33
41 -45 37 -67 -4 -20 2 -33 20 -52 14 -14 30 -41 37 -60 13 -39 52 -76 82 -76
40 0 83 -28 103 -66 20 -39 55 -84 55 -71 0 4 -11 25 -25 47 -29 46 -31 56 -9
64 27 10 32 7 39 -24 4 -16 11 -30 16 -30 5 0 4 11 -1 26 -6 14 -10 37 -9 52
1 25 2 25 19 -11 12 -26 16 -57 14 -94 -3 -64 -7 -71 -31 -52 -14 12 -14 10 2
-14 20 -31 32 -26 42 19 12 56 4 112 -22 168 -44 94 -29 101 47 22 69 -71 85
-109 61 -141 -7 -10 -10 -21 -8 -26 3 -4 1 -10 -4 -14 -18 -11 15 -88 72 -173
41 -59 56 -76 55 -58 -1 14 -5 23 -9 20 -9 -5 -98 133 -106 163 -3 13 -2 34 1
47 15 59 75 -4 91 -94 8 -44 19 -56 12 -13 -9 59 -29 108 -59 146 -17 21 -28
40 -25 43 7 7 31 -19 78 -87 27 -38 47 -58 57 -54 7 3 16 5 19 5 2 0 -9 12
-26 26 -17 14 -28 30 -25 35 3 5 9 7 14 4 4 -3 19 4 31 16 l24 20 -26 -16
c-25 -15 -28 -15 -53 7 -46 41 14 74 76 42 16 -8 34 -11 41 -7 7 4 32 8 57 9
96 3 110 4 110 13 0 5 -7 12 -16 15 -8 3 -13 2 -10 -3 3 -4 -33 -9 -80 -9
-104 -2 -178 23 -229 75 -20 20 -33 38 -31 40 2 3 29 -7 60 -21 31 -14 60 -26
64 -26 5 0 37 -11 72 -25 35 -14 59 -20 54 -15 -6 6 -44 22 -85 37 -103 35
-161 62 -154 72 5 9 88 7 138 -4 43 -9 31 3 -15 16 -46 12 -85 13 -134 3 -20
-4 -42 0 -63 11 l-32 16 40 32 c38 30 53 57 31 57 -5 0 -12 11 -16 23 -3 14
-19 30 -36 38 -21 9 -33 23 -35 38 -2 14 -9 32 -16 40 -15 20 -36 56 -59 103
-22 46 -62 78 -89 71 -11 -3 -30 -21 -43 -40 l-23 -34 -6 47 c-7 67 -22 78
-83 63 -88 -21 -104 -30 -112 -61 l-7 -29 -30 46 c-16 26 -46 61 -66 79 -47
39 -169 108 -169 94 0 -11 60 -91 72 -96 5 -2 8 -9 8 -15 0 -6 17 -29 38 -50
l37 -39 -40 17 c-96 41 -235 95 -243 95 -5 0 -31 28 -58 63 -27 34 -52 63 -55
65 -4 2 -20 14 -35 27 -26 22 -113 60 -159 69 -11 2 -32 7 -47 11 -37 9 -35 0
8 -40 48 -46 81 -66 227 -142 41 -22 32 -34 -13 -18 -22 8 -59 17 -82 20 -23
4 -45 8 -48 10 -3 1 -27 6 -55 10 -27 4 -61 9 -75 11 -14 2 -63 6 -110 10 -92
6 -117 19 -147 79 -24 45 -72 83 -127 100 -58 17 -76 19 -76 5z m135 -56 c34
-26 72 -84 55 -84 -13 0 -70 42 -119 88 l-36 34 35 -8 c19 -3 48 -17 65 -30z
m-430 -50 c10 -19 37 -46 59 -59 45 -27 30 -33 -34 -14 -29 9 -39 18 -43 38
-3 14 -8 36 -12 49 -11 35 8 26 30 -14z m959 -19 c47 -29 64 -42 90 -73 20
-23 20 -23 0 -15 -75 31 -212 112 -218 129 -6 17 78 -10 128 -41z m-956 -67
c57 -21 62 -30 31 -51 -18 -13 -25 -13 -62 2 -50 19 -104 67 -85 74 17 6 50
-1 116 -25z m113 -32 c-6 -8 -17 -33 -24 -57 -7 -24 -18 -44 -25 -43 -7 1 -32
2 -57 3 -57 1 -61 24 -7 42 20 6 52 25 70 40 34 30 64 41 43 15z m260 -8 c2
-41 -3 -73 -12 -82 -9 -10 -11 3 -11 54 0 40 2 50 12 50 6 0 10 -10 11 -22z
m243 7 c-10 -25 -144 -97 -144 -77 1 12 78 65 113 78 17 6 33 12 34 13 1 0 0
-6 -3 -14z m736 -24 c0 -5 10 -12 23 -15 29 -8 75 -52 112 -106 16 -25 33 -51
38 -57 15 -21 2 -15 -29 12 -16 15 -40 33 -54 41 -14 9 -36 31 -50 50 -14 19
-33 44 -42 56 -21 24 -22 28 -8 28 6 0 10 -4 10 -9z m-534 -37 c57 -16 72 -28
27 -19 -140 24 -174 35 -114 35 18 0 57 -7 87 -16z m892 -61 c9 -16 9 -68 3
-148 -3 -29 -4 -28 -26 20 -17 39 -23 46 -27 30 -3 -11 4 -36 15 -55 l20 -35
-41 40 c-31 29 -42 35 -42 22 0 -10 6 -20 14 -23 8 -3 17 -13 20 -21 6 -14 3
-14 -18 1 -14 9 -32 16 -40 16 -19 0 -30 35 -27 85 3 46 22 65 65 65 17 0 38
5 46 10 21 14 28 12 38 -7z m-944 -31 c-12 -9 -34 -27 -50 -40 -16 -12 -48
-52 -71 -90 -41 -65 -43 -66 -43 -34 0 18 -7 49 -15 69 -8 19 -15 39 -15 43 0
8 45 24 140 50 81 23 79 23 54 2z m318 -20 c-32 -28 -112 -76 -112 -68 0 17
129 111 139 101 2 -3 -10 -17 -27 -33z m-262 24 c0 -3 -12 -18 -26 -33 -14
-15 -36 -39 -48 -53 -12 -14 -38 -38 -60 -54 l-38 -28 16 28 c23 43 46 68 99
108 48 35 57 41 57 32z m1042 -30 c10 -12 17 -26 18 -32 0 -6 9 -23 20 -37 11
-14 20 -29 20 -34 0 -5 -28 -21 -62 -36 -90 -39 -113 -36 -61 9 15 13 24 26
20 30 -3 4 -13 1 -22 -6 -21 -18 -19 -3 7 38 15 24 17 33 7 30 -8 -2 -26 -26
-40 -52 -24 -44 -27 -46 -32 -24 -7 28 1 68 14 68 6 0 13 8 17 18 25 62 58 71
94 28z m-379 -46 c89 -50 91 -60 7 -44 -103 19 -153 27 -172 26 -10 0 -20 3
-23 9 -4 5 0 9 7 9 7 1 31 9 53 19 47 23 57 21 128 -19z m-183 18 c-14 -5 -43
-19 -66 -29 -23 -10 -47 -19 -55 -19 -21 0 20 25 71 43 50 17 89 21 50 5z
m-965 -27 c3 -5 19 -12 36 -16 30 -7 29 -8 -43 -44 -57 -29 -75 -34 -81 -23
-6 8 2 24 22 44 17 18 31 35 31 40 0 11 27 10 35 -1z m1030 -36 c11 -2 43 -7
70 -11 28 -3 59 -11 70 -17 11 -6 22 -9 23 -8 2 2 7 0 10 -4 15 -15 -151 5
-207 25 -33 13 -61 24 -61 26 0 4 56 -3 95 -11z m-785 -25 c0 -16 -2 -30 -4
-30 -2 0 -6 14 -8 30 -3 17 -1 30 4 30 4 0 8 -13 8 -30z m-196 -33 l-15 -44
-59 0 -59 0 22 20 c17 15 112 66 124 67 1 0 -5 -19 -13 -43z m1249 -8 c9 -17
17 -44 17 -60 0 -19 6 -32 18 -37 17 -7 17 -9 2 -50 -14 -37 -18 -41 -29 -28
-7 8 -12 23 -11 33 4 36 -1 46 -47 89 l-48 45 28 24 c32 29 46 26 70 -16z
m-1209 -1 c4 -17 -1 -29 -20 -45 -26 -24 -55 -28 -89 -13 -14 6 -7 7 22 3 35
-4 43 -2 52 15 6 11 11 30 11 41 0 28 16 27 24 -1z m1521 12 c3 -5 8 -20 10
-32 5 -24 30 -48 52 -48 19 0 27 -48 13 -75 -13 -23 -72 -45 -124 -45 -39 0
-91 29 -110 61 -20 34 -12 38 15 7 12 -16 18 -18 19 -9 0 8 -12 28 -27 44 -31
32 -33 31 37 11 36 -10 21 14 -17 27 -21 7 -31 14 -23 16 9 2 38 15 65 28 54
26 80 31 90 15z m-153 -177 c11 -12 40 -27 64 -34 41 -13 44 -16 46 -51 0 -21
1 -43 2 -50 1 -7 -11 -19 -26 -27 -22 -13 -31 -13 -50 -3 -13 7 -30 14 -38 16
-65 11 -79 19 -94 51 -22 46 -23 93 -2 133 21 41 27 41 22 0 -4 -31 20 -96 30
-85 3 2 1 22 -3 43 -5 22 -7 52 -5 69 l4 30 14 -35 c8 -19 24 -45 36 -57z
m222 -65 c24 -11 49 -31 54 -43 6 -13 31 -40 57 -61 l46 -39 -28 -7 c-25 -7
-34 -2 -88 55 -123 130 -126 137 -41 95z"/>
<path d="M4460 4016 c0 -3 9 -10 20 -16 11 -6 20 -8 20 -6 0 3 -9 10 -20 16
-11 6 -20 8 -20 6z"/>
<path d="M4530 3965 c13 -14 27 -25 32 -25 5 0 -3 11 -18 25 -15 14 -29 25
-32 25 -3 0 5 -11 18 -25z"/>
<path d="M3580 3834 c-29 -20 -67 -41 -84 -47 -20 -7 -203 -11 -536 -12 -744
-2 -870 -12 -1058 -85 -170 -66 -313 -195 -337 -306 -25 -113 22 -195 131
-229 202 -63 562 73 632 239 49 115 -15 191 -158 190 -152 0 -410 -128 -513
-252 -29 -36 -35 -62 -14 -62 6 0 41 30 77 66 150 152 351 241 494 220 115
-18 131 -137 31 -225 -68 -59 -170 -110 -293 -145 -75 -22 -224 -16 -277 9
-59 30 -88 78 -83 141 9 114 89 209 232 278 114 55 189 76 351 101 46 7 281 8
293 2 4 -3 54 -8 112 -12 58 -4 112 -9 121 -10 61 -12 225 -20 394 -20 175 0
210 3 283 22 118 32 226 90 259 140 24 36 -2 35 -57 -3z"/>
<path d="M4596 3755 c-11 -8 -16 -15 -10 -15 5 0 18 7 28 15 11 8 16 15 10 15
-5 0 -18 -7 -28 -15z"/>
<path d="M4487 3713 c3 -8 11 -12 18 -9 8 3 26 -6 42 -20 15 -13 32 -24 37
-24 5 0 -3 9 -17 20 -15 12 -24 27 -21 35 5 11 -2 14 -29 13 -26 -1 -34 -5
-30 -15z"/>
<path d="M4745 3690 c-3 -5 -15 -10 -26 -10 -10 0 -19 -4 -19 -9 0 -6 13 -6
33 1 39 13 41 14 28 22 -5 4 -12 2 -16 -4z"/>
<path d="M2815 3638 c-151 -120 -430 -400 -550 -552 -18 -22 -32 -29 -71 -32
-194 -16 -428 -81 -442 -123 -5 -16 31 -12 83 10 17 7 32 13 35 14 23 7 95 27
97 27 2 0 26 6 55 14 29 7 80 17 113 20 33 4 63 8 68 11 4 2 7 -1 7 -7 0 -10
-89 -141 -119 -177 -6 -6 -30 -40 -53 -75 -58 -86 -220 -246 -291 -287 -31
-18 -88 -45 -125 -59 -60 -23 -82 -26 -212 -26 -164 -1 -223 13 -272 66 -37
38 -35 48 6 41 27 -4 36 -1 50 18 22 32 20 75 -4 99 -32 32 -89 24 -110 -16
-30 -54 -12 -129 42 -177 83 -73 336 -94 523 -43 261 71 446 224 654 541 65
97 77 111 107 116 19 3 36 4 38 1 3 -2 -15 -29 -40 -60 -51 -62 -76 -106 -67
-116 14 -14 81 -5 105 13 14 11 39 53 57 94 31 70 34 74 81 91 100 36 162 103
130 141 -30 36 -119 -2 -191 -81 -30 -34 -42 -40 -82 -43 l-48 -3 23 41 c72
128 243 334 343 411 69 54 126 112 122 123 -6 20 -22 16 -62 -15z m-130 -457
c10 -17 -107 -92 -121 -78 -6 6 35 50 64 69 30 20 48 23 57 9z"/>
<path d="M4311 3654 c0 -11 3 -14 6 -6 3 7 2 16 -1 19 -3 4 -6 -2 -5 -13z"/>
<path d="M4403 3637 c25 -37 26 -41 12 -73 -9 -21 -10 -32 -3 -28 8 5 9 -2 4
-22 -7 -26 -6 -27 6 -11 13 17 14 14 17 -27 1 -33 -5 -59 -21 -89 -27 -50 -43
-68 -52 -60 -3 4 -6 1 -6 -5 0 -29 21 -17 56 33 31 46 38 64 37 104 0 26 -7
64 -14 84 -7 20 -10 40 -6 44 9 8 27 -9 31 -28 2 -8 20 -50 40 -94 39 -82 40
-91 30 -182 -5 -42 -2 -62 15 -95 26 -53 49 -83 56 -76 3 3 -1 12 -9 21 -34
34 -57 95 -54 143 2 26 8 49 14 51 9 3 54 -125 54 -154 0 -7 5 -15 12 -19 15
-9 4 59 -21 132 -10 30 -14 54 -10 54 16 0 49 -54 64 -106 8 -30 18 -54 21
-54 3 0 2 9 -1 21 -4 12 -8 31 -10 44 -3 31 -51 111 -70 119 -16 6 -71 113
-63 122 7 6 43 -28 57 -54 7 -13 15 -21 18 -18 3 3 27 -9 52 -27 89 -64 93
-60 9 7 -29 24 -45 43 -41 52 4 10 0 12 -10 8 -11 -4 -34 12 -68 47 -51 50
-52 52 -23 46 53 -10 87 -18 96 -23 4 -3 8 1 8 8 0 9 -12 14 -32 15 -48 2
-125 39 -176 87 l-45 41 26 -38z"/>
<path d="M4623 3653 c9 -2 23 -2 30 0 6 3 -1 5 -18 5 -16 0 -22 -2 -12 -5z"/>
<path d="M4359 3503 l-24 -28 28 24 c25 23 32 31 24 31 -2 0 -14 -12 -28 -27z"/>
<path d="M4640 3449 c0 -5 5 -7 10 -4 6 3 10 8 10 11 0 2 -4 4 -10 4 -5 0 -10
-5 -10 -11z"/>
<path d="M4670 3450 c0 -5 7 -10 15 -10 21 0 93 -37 118 -61 11 -10 33 -38 49
-61 37 -56 36 -35 -1 24 -32 50 -65 77 -129 101 -50 20 -52 20 -52 7z"/>
<path d="M4610 3396 c0 -2 8 -10 18 -17 15 -13 16 -12 3 4 -13 16 -21 21 -21
13z"/>
<path d="M4649 3346 c13 -16 51 -41 51 -33 0 2 -15 14 -32 27 -21 15 -28 17
-19 6z"/>
<path d="M4740 3336 c0 -3 9 -10 20 -16 11 -6 20 -8 20 -6 0 3 -9 10 -20 16
-11 6 -20 8 -20 6z"/>
<path d="M4747 3289 c7 -7 15 -10 18 -7 3 3 -2 9 -12 12 -14 6 -15 5 -6 -5z"/>
<path d="M4815 3270 c3 -5 8 -10 11 -10 2 0 4 5 4 10 0 6 -5 10 -11 10 -5 0
-7 -4 -4 -10z"/>
<path d="M4665 3159 c-4 -6 -5 -12 -2 -15 2 -3 7 2 10 11 7 17 1 20 -8 4z"/>
<path d="M4641 3066 c-7 -8 -8 -17 -3 -19 4 -3 13 3 20 14 14 22 0 26 -17 5z"/>
<path d="M499 3050 c-1 -5 -2 -16 -3 -22 -3 -19 16 -72 29 -83 7 -5 22 -28 34
-50 l23 -40 -35 38 c-59 64 -97 37 -53 -38 28 -48 43 -61 71 -66 18 -4 19 -13
20 -136 0 -72 0 -131 -1 -130 -1 1 -22 29 -46 62 -57 77 -120 137 -131 126 -5
-5 2 -26 17 -50 14 -22 26 -44 26 -49 0 -9 117 -128 138 -141 6 -4 14 -27 17
-51 3 -25 8 -61 12 -80 l6 -35 -54 60 c-30 32 -65 68 -77 79 -13 12 -33 38
-44 59 -12 24 -25 37 -35 35 -25 -5 -27 -25 -3 -45 31 -26 110 -103 110 -107
0 -2 -24 3 -52 11 -74 20 -82 20 -86 1 -3 -15 4 -18 34 -18 20 0 61 -8 91 -17
44 -14 61 -26 92 -67 21 -28 42 -62 46 -76 7 -21 0 -18 -44 22 -60 55 -139
101 -158 94 -36 -14 65 -124 162 -176 81 -43 95 -60 92 -119 -2 -42 3 -54 37
-97 22 -27 57 -65 77 -84 24 -22 54 -68 80 -125 23 -49 44 -94 47 -100 3 -5
-48 45 -114 111 -108 110 -215 202 -286 248 -24 16 -28 16 -28 3 0 -16 97
-147 139 -187 49 -48 166 -137 237 -183 65 -41 124 -101 111 -113 -2 -3 -26 8
-53 23 -27 16 -75 38 -107 50 -51 19 -59 19 -64 6 -4 -10 4 -24 22 -37 44 -33
163 -95 195 -101 8 -2 17 -4 20 -5 3 -1 8 -2 11 -2 4 1 30 -36 59 -81 29 -45
56 -84 59 -87 4 -3 26 -30 51 -60 25 -30 62 -72 83 -92 21 -21 34 -38 30 -38
-5 0 -51 40 -102 89 -75 72 -97 99 -110 138 -13 40 -20 48 -38 46 -13 -2 -23
1 -23 5 0 4 -17 26 -38 50 -33 39 -39 42 -56 29 -18 -13 -18 -15 -1 -51 10
-20 27 -43 39 -52 21 -15 18 -21 -19 -38 -19 -9 33 -43 74 -50 51 -8 53 -22 5
-30 -26 -5 -34 -12 -32 -24 3 -14 15 -17 80 -16 l76 2 54 -50 53 -49 -35 7
c-44 10 -218 12 -232 3 -14 -9 30 -37 85 -54 28 -8 74 -11 127 -9 94 6 122 -2
190 -54 l45 -34 -55 6 c-30 3 -88 8 -128 11 -39 3 -90 12 -112 20 -28 10 -41
11 -46 3 -11 -17 26 -38 65 -39 49 0 157 -8 211 -15 25 -3 59 -7 76 -9 17 -2
49 -16 70 -31 l39 -27 -35 7 c-80 16 -152 17 -202 5 -29 -7 -56 -13 -60 -14
-14 -1 -18 -13 -6 -22 16 -12 119 -44 144 -44 11 0 71 2 135 5 l116 6 99 -41
c92 -38 147 -69 99 -56 -11 3 -74 7 -140 9 -105 3 -120 1 -123 -13 -2 -12 11
-22 45 -35 40 -16 75 -19 212 -18 155 1 164 0 187 -21 13 -12 38 -26 56 -31
31 -9 30 -10 -35 -24 -42 -8 -67 -19 -67 -27 0 -14 19 -16 128 -13 47 1 63 -2
61 -12 -4 -33 3 -48 24 -54 12 -3 31 -20 42 -37 19 -29 25 -32 70 -32 32 0 59
-6 75 -17 21 -16 26 -16 39 -3 14 14 17 80 5 117 -7 24 10 23 63 -3 82 -40
146 -2 137 79 -4 31 -2 33 19 26 25 -7 71 -29 138 -66 78 -42 192 -61 203 -33
3 8 0 15 -7 15 -7 0 -57 23 -111 50 -54 28 -105 50 -113 50 -8 0 -11 5 -8 10
6 10 67 6 84 -5 4 -2 30 -7 57 -11 27 -3 51 -7 54 -9 14 -8 145 -20 221 -20
60 0 92 5 104 15 16 13 16 15 0 26 -9 7 -56 16 -103 20 -48 4 -90 9 -94 10 -5
1 -29 2 -55 4 l-48 2 65 15 c73 17 160 20 268 9 72 -7 142 5 142 24 0 8 -41
36 -47 32 -2 -1 -13 -2 -25 -2 l-22 0 23 17 c15 10 45 17 78 17 29 1 53 4 53
9 0 4 -12 7 -27 7 l-28 0 35 21 c38 23 65 26 150 16 42 -5 48 -4 25 3 -27 9
-60 16 -90 20 -20 2 63 32 140 50 44 10 69 19 55 19 -14 1 -49 -5 -78 -13 -29
-7 -52 -12 -52 -10 0 2 109 80 198 141 18 13 37 23 42 23 5 0 15 9 23 20 8 11
17 17 21 12 4 -4 6 -2 4 5 -3 12 167 183 183 183 5 0 13 10 18 22 9 23 91 130
123 159 10 9 18 22 18 28 0 7 5 9 12 5 7 -4 8 -3 4 4 -4 6 12 42 35 79 23 37
57 97 76 133 18 36 44 73 56 82 12 9 18 20 14 24 -4 4 -7 2 -7 -4 0 -6 -6 -9
-12 -7 -8 3 -30 -25 -54 -68 -22 -39 -46 -71 -53 -69 -7 1 -10 -2 -6 -7 3 -6
-2 -25 -11 -43 -21 -41 -93 -149 -108 -163 -6 -6 -15 -18 -21 -26 -38 -61 -93
-120 -118 -125 -19 -5 -27 -13 -27 -28 0 -22 -99 -120 -210 -208 -30 -23 -56
-46 -58 -50 -2 -5 -10 -8 -18 -8 -8 0 -14 -3 -14 -8 0 -4 -9 -13 -21 -20 -12
-8 -18 -9 -14 -3 12 21 -4 11 -62 -39 -32 -27 -62 -50 -68 -50 -5 1 4 12 20
25 24 21 27 27 16 34 -9 6 -22 6 -33 0 -15 -8 -18 -6 -18 11 0 12 -4 18 -10
15 -6 -3 -10 -15 -10 -26 0 -10 -4 -19 -9 -19 -5 0 -42 -22 -82 -48 -107 -69
-107 -69 -90 -48 10 12 11 20 3 28 -14 14 -68 -19 -137 -82 -42 -39 -63 -50
-135 -69 -47 -13 -105 -24 -130 -27 l-45 -3 40 13 c22 8 71 24 110 36 38 12
75 26 82 32 7 6 13 8 13 4 0 -4 11 1 25 10 34 22 34 48 -1 40 -14 -4 -45 -9
-67 -12 -23 -3 -80 -23 -127 -44 -122 -54 -209 -87 -255 -94 l-40 -7 36 19
c115 64 206 152 156 152 -30 0 -160 -79 -211 -128 -55 -53 -55 -53 -62 -28 -3
14 -2 38 4 54 14 41 -9 92 -42 92 -16 0 -27 7 -31 20 -6 18 -17 25 -38 21 -5
-1 -31 21 -57 50 -55 57 -70 58 -119 10 -42 -41 -49 -85 -22 -154 6 -16 11
-33 11 -38 0 -10 -58 31 -105 74 -26 24 -64 32 -85 19 -14 -9 -28 -2 -75 38
-67 57 -111 78 -127 62 -14 -14 3 -40 76 -118 l55 -59 -25 -25 -25 -25 -39 44
c-22 24 -42 52 -45 62 -4 11 -11 19 -16 19 -5 0 -9 7 -9 15 0 18 -120 139
-178 178 -126 88 -12 -81 166 -245 35 -32 58 -58 53 -58 -5 0 -39 14 -76 31
-54 25 -73 41 -111 92 -56 76 -150 264 -159 316 -5 29 -1 48 14 77 12 21 21
46 21 56 0 9 5 28 11 40 20 45 -2 75 -73 96 -97 30 -144 10 -134 -58 14 -94
18 -106 49 -133 76 -66 93 -86 103 -122 l12 -38 -45 47 c-65 66 -81 61 -43
-14 11 -22 50 -68 86 -102 76 -72 160 -191 139 -196 -17 -4 -123 50 -152 77
-12 12 -29 44 -38 72 -24 81 -146 276 -165 264 -21 -13 18 -124 72 -208 17
-26 28 -50 25 -53 -3 -4 -31 17 -62 46 -30 29 -53 55 -51 57 2 2 -2 28 -10 56
-7 30 -12 98 -12 159 1 59 -1 111 -5 114 -4 4 -13 1 -22 -6 -11 -9 -12 -17 -5
-30 6 -10 10 -45 9 -77 0 -64 -4 -59 -36 41 -10 33 -24 61 -31 64 -14 4 -17
-34 -2 -43 5 -3 14 -25 20 -48 6 -23 22 -65 36 -93 13 -28 24 -63 24 -78 l0
-28 -38 39 c-74 76 -79 86 -81 170 -4 142 -9 210 -20 264 -14 65 -62 166 -76
159 -21 -10 -7 -269 18 -330 24 -59 46 -124 43 -128 -8 -8 -109 145 -147 223
-38 75 -40 84 -38 165 1 61 -3 97 -16 128 -25 62 -48 51 -39 -19 15 -121 17
-120 -30 -27 -63 124 -62 118 -16 169 30 33 40 53 41 79 0 19 2 46 5 59 6 34
-21 71 -52 71 -14 0 -38 7 -55 15 -16 9 -45 16 -65 17 -35 1 -36 2 -29 37 4
20 24 69 46 110 28 51 37 77 29 85 -12 12 -32 -4 -35 -31 -1 -10 -8 -31 -15
-48 l-14 -30 -6 50 c-3 35 -9 50 -20 50 -9 0 -14 -7 -12 -20 14 -84 17 -126 9
-151 -4 -16 -10 -37 -12 -48 -8 -35 -14 -28 -39 53 -43 136 -43 152 -5 208 18
26 35 50 38 53 23 20 91 211 91 255 0 17 -1 17 -20 0 -21 -19 -98 -164 -125
-238 -10 -26 -21 -44 -26 -40 -13 14 -29 176 -25 260 4 85 13 104 88 187 21
23 8 47 -22 39 -15 -4 -20 0 -20 14 0 30 -30 65 -51 60 -11 -3 -29 7 -49 29
-31 34 -49 43 -51 24z m47 -50 c16 -18 33 -29 47 -27 31 3 45 -43 26 -84 l-15
-31 -40 69 c-61 102 -68 133 -18 73z m2 -149 c13 -23 19 -41 13 -41 -10 0 -39
37 -60 78 -23 43 22 8 47 -37z m-47 -252 c23 -29 27 -38 12 -29 -19 12 -60 70
-49 70 2 0 19 -19 37 -41z m243 -19 c-12 -42 -70 -150 -80 -150 -5 0 24 77 53
139 15 34 31 61 35 61 4 0 0 -22 -8 -50z m-157 -354 c29 -27 52 -51 49 -53
-14 -14 -166 104 -166 129 0 15 59 -23 117 -76z m241 -119 c7 -5 27 -11 45
-13 53 -6 59 -25 42 -127 -3 -16 -12 -36 -22 -45 -16 -16 -16 -16 -9 3 14 37
18 100 7 128 -13 34 -47 36 -62 3 l-11 -24 -28 32 c-26 28 -29 29 -36 13 -3
-10 -1 -29 6 -42 7 -13 9 -28 5 -34 -3 -7 3 -30 14 -51 28 -55 13 -50 -30 10
-36 49 -42 83 -24 138 10 28 71 34 103 9z m47 -68 c8 -26 -2 -84 -21 -121 -15
-29 -34 -37 -34 -15 0 7 -9 29 -20 49 -14 28 -17 43 -10 60 5 13 9 17 9 11 1
-22 27 -14 41 12 16 30 27 32 35 4z m-225 -158 c76 -63 240 -226 213 -212 -33
17 -153 110 -194 151 -45 45 -109 127 -89 115 8 -5 40 -29 70 -54z m513 -263
c9 -24 19 -63 22 -88 10 -79 13 -212 5 -203 -8 9 -32 79 -35 103 -1 8 -5 31
-9 50 -9 52 -13 180 -6 180 4 0 14 -19 23 -42z m-268 -77 c47 -26 86 -53 82
-58 -5 -4 -157 76 -157 84 0 7 40 -7 75 -26z m104 -167 c38 -51 39 -54 13 -35
-30 21 -62 63 -62 81 0 17 6 12 49 -46z m602 16 c25 0 43 -35 30 -59 -6 -10
-13 -33 -16 -52 -8 -46 -25 -61 -26 -23 -2 92 -40 164 -69 129 -23 -27 12
-165 42 -165 4 0 8 -4 8 -10 0 -35 -88 44 -94 85 -2 17 -7 38 -11 48 -4 9 -4
28 -1 41 7 30 39 37 85 19 18 -7 42 -13 52 -13z m-42 -82 c6 -28 9 -53 7 -55
-8 -9 -28 39 -33 79 -6 57 13 39 26 -24z m-499 -18 c12 -23 6 -24 -41 -8 -34
12 -34 12 -9 19 38 11 39 10 50 -11z m464 -309 c9 -24 15 -45 13 -48 -7 -7
-103 160 -111 192 -9 40 73 -82 98 -144z m-295 89 c12 -7 8 -10 -19 -11 -19
-2 -44 -3 -55 -4 -33 -2 -98 17 -85 25 15 10 139 2 159 -10z m366 -28 c-5 -5
-45 36 -45 46 0 3 11 -5 25 -18 14 -13 23 -26 20 -28z m233 -138 c28 -28 52
-56 52 -61 0 -6 9 -18 20 -28 30 -27 24 -39 -6 -12 -57 49 -82 74 -117 118
-67 83 -43 75 51 -17z m592 22 c0 -8 16 -27 35 -42 43 -32 45 -59 8 -100 -16
-17 -40 -46 -55 -65 l-28 -34 6 43 c5 28 3 42 -5 42 -6 0 -11 -11 -11 -25 0
-41 -15 -29 -34 29 -12 35 -16 64 -12 82 13 51 96 111 96 70z m1160 -1 c0 -7
-84 -85 -92 -85 -4 0 -8 4 -8 9 0 5 -23 -6 -51 -25 -28 -19 -58 -34 -68 -33
-13 0 -14 1 -1 7 8 4 42 25 75 47 52 34 135 83 143 85 1 0 2 -2 2 -5z m-1575
-44 c49 -32 95 -77 95 -95 0 -28 -25 -18 -66 27 -82 90 -90 107 -29 68z m-472
-33 c26 -5 47 -12 45 -13 -2 -2 -40 -6 -86 -10 -120 -10 -242 23 -137 38 39 5
118 -1 178 -15z m1042 -48 c26 0 44 -28 36 -56 -5 -22 -13 -27 -43 -29 -19 -1
-51 -11 -70 -23 -20 -12 -44 -22 -54 -22 -18 1 -18 1 1 12 34 20 85 70 79 80
-3 4 -26 -10 -51 -32 -73 -64 -79 -46 -8 25 11 11 29 38 39 59 l19 40 19 -27
c11 -15 26 -27 33 -27z m745 16 c0 -3 -15 -14 -32 -26 l-33 -22 30 26 c31 27
35 29 35 22z m-1108 -30 c45 -31 117 -92 122 -103 4 -9 -1 -10 -22 -2 -35 14
-102 19 -102 8 0 -5 5 -10 10 -10 6 -1 19 -3 30 -4 11 -1 27 -3 35 -4 22 -2
18 -21 -4 -21 -10 0 -39 -9 -64 -20 -32 -14 -56 -18 -83 -14 -53 8 -84 21 -90
38 -7 19 13 56 43 79 12 10 23 25 23 32 0 8 10 21 22 29 23 16 49 14 80 -8z
m652 2 c-5 -12 -93 -73 -141 -97 -31 -16 -21 7 14 33 23 17 123 75 130 76 1 0
0 -6 -3 -12z m286 -10 c-14 -6 -34 -14 -45 -19 -23 -9 -126 -39 -134 -39 -16
1 80 44 124 55 61 16 89 17 55 3z m185 -57 c46 -1 65 -4 56 -10 -8 -5 -40 -7
-70 -4 -31 3 -66 5 -78 6 -13 1 -23 5 -23 9 0 4 10 6 23 4 12 -3 54 -5 92 -5z
m-1550 -26 c90 -3 95 -3 95 -14 0 -13 -196 -3 -233 13 l-32 14 50 -5 c28 -3
82 -6 120 -8z m809 -7 c6 -7 12 -22 12 -33 0 -11 3 -40 7 -64 10 -56 -8 -86
-53 -89 -29 -2 -40 5 -82 50 -55 59 -60 73 -20 52 40 -21 62 -18 32 5 -13 11
-27 18 -31 15 -4 -2 -12 3 -19 11 -10 12 -9 15 6 15 11 1 39 12 64 25 52 28
67 30 84 13z m436 -53 c69 -3 136 -7 150 -10 14 -2 36 -4 50 -5 l25 -1 -25
-11 c-23 -9 -117 -6 -195 6 -16 3 -57 8 -90 11 -33 4 -64 11 -69 15 -5 5 -1 7
10 5 10 -2 75 -7 144 -10z m-723 -33 c-10 -10 -17 -25 -17 -33 1 -8 10 -3 26
15 l25 28 -7 -28 c-11 -42 -10 -63 1 -63 6 -1 10 5 11 12 1 30 16 87 22 87 4
0 15 -28 25 -63 10 -34 22 -71 27 -83 8 -21 2 -74 -9 -74 -3 0 -15 7 -26 15
-13 11 -32 13 -65 9 -43 -5 -46 -4 -63 26 -9 18 -26 34 -36 37 -50 13 -16 84
58 122 41 22 51 19 28 -7z m133 -44 c0 -5 -5 -8 -10 -8 -9 0 -30 41 -30 58 1
9 39 -41 40 -50z m417 0 c46 -22 83 -42 83 -43 0 -13 -83 14 -155 51 -76 38
-84 44 -51 39 22 -4 77 -25 123 -47z"/>
<path d="M3127 2814 c-1 -1 -27 -5 -57 -8 -179 -21 -427 -115 -578 -218 -268
-183 -342 -504 -149 -647 84 -62 134 -76 272 -75 139 0 241 22 390 84 269 113
397 238 399 394 1 77 -23 115 -99 150 -134 64 -346 7 -582 -156 -137 -95 -283
-249 -283 -299 0 -30 15 -23 56 28 143 176 330 321 499 388 101 41 231 45 301
10 61 -30 82 -64 79 -127 -4 -80 -54 -160 -140 -223 -22 -17 -42 -32 -45 -36
-16 -18 -206 -104 -296 -134 -120 -40 -183 -50 -304 -49 -89 1 -155 22 -227
69 -60 40 -78 72 -77 141 1 51 7 72 38 129 99 180 286 365 455 449 60 30 124
55 143 56 4 1 26 7 48 15 23 8 69 18 103 22 70 8 269 8 307 0 132 -28 197 -52
277 -103 79 -50 131 -108 167 -188 17 -35 17 -40 2 -48 -43 -24 -180 -140
-256 -217 -111 -112 -180 -191 -322 -366 -169 -209 -276 -294 -465 -370 -89
-37 -86 -36 -158 -12 -27 9 -59 18 -70 20 -11 2 -31 7 -45 10 -92 23 -272 33
-340 18 -62 -13 -90 -34 -90 -67 0 -82 202 -108 515 -66 66 9 126 8 205 -3
307 -41 586 52 798 266 193 197 284 416 284 684 l1 101 61 41 c33 22 103 64
154 92 93 53 117 79 63 68 -30 -6 -70 -29 -209 -115 l-82 -52 -26 55 c-61 129
-211 229 -411 276 -39 9 -298 20 -306 13z m724 -501 c-1 -48 -3 -100 -6 -115
-3 -16 -7 -40 -9 -55 -6 -47 -37 -144 -67 -208 -88 -190 -289 -379 -489 -459
-113 -45 -191 -59 -335 -60 -77 -1 -153 3 -170 7 -28 8 -22 12 80 48 319 112
416 197 669 581 64 98 145 207 179 242 59 62 136 121 144 112 3 -2 4 -44 4
-93z m-1401 -828 c60 -11 136 -35 154 -48 35 -26 -269 -52 -385 -33 -103 16
-138 63 -63 86 31 9 237 6 294 -5z"/>
<path d="M4335 1982 c-16 -12 -16 -31 0 -62 17 -33 22 -37 22 -17 0 6 3 21 6
33 8 23 -13 57 -28 46z"/>
<path d="M4492 1973 c-12 -24 -22 -93 -14 -93 13 0 52 66 52 88 0 26 -26 29
-38 5z m10 -35 c-6 -6 -7 0 -4 19 5 21 7 23 10 9 2 -10 0 -22 -6 -28z"/>
<path d="M4555 1879 c-23 -12 -62 -61 -43 -54 7 2 26 7 42 9 36 6 50 20 43 40
-7 18 -14 19 -42 5z m30 -19 c-3 -5 -14 -10 -23 -10 -15 0 -15 2 -2 10 20 13
33 13 25 0z"/>
<path d="M4342 1824 c-1 -13 2 -24 6 -24 10 0 13 38 3 44 -3 3 -8 -6 -9 -20z"/>
<path d="M4342 1756 c1 -19 5 -33 8 -31 7 4 1 65 -6 65 -3 0 -4 -15 -2 -34z"/>
<path d="M4157 1726 c-7 -18 13 -96 24 -96 5 0 8 3 7 8 -1 4 2 17 6 30 4 13 5
34 2 48 -7 26 -31 32 -39 10z"/>
<path d="M4516 1685 c-32 -30 -61 -53 -65 -52 -3 1 -22 -13 -42 -31 -20 -18
-45 -40 -55 -48 -18 -15 -18 -15 1 -5 11 5 33 21 49 35 16 15 32 26 35 26 3 0
24 16 46 35 24 21 51 35 67 35 29 0 58 23 58 46 0 28 -36 12 -94 -41z m69 25
c-3 -5 -11 -10 -16 -10 -6 0 -7 5 -4 10 3 6 11 10 16 10 6 0 7 -4 4 -10z"/>
<path d="M4029 1721 c-20 -7 -11 -37 20 -65 21 -19 21 -19 21 0 -1 36 -24 72
-41 65z m16 -21 c3 -5 1 -10 -4 -10 -6 0 -11 5 -11 10 0 6 2 10 4 10 3 0 8 -4
11 -10z"/>
<path d="M4341 1694 c0 -11 3 -14 6 -6 3 7 2 16 -1 19 -3 4 -6 -2 -5 -13z"/>
<path d="M4450 1684 c-6 -14 -10 -28 -10 -32 1 -10 24 31 26 46 4 21 -6 13
-16 -14z"/>
<path d="M4163 1575 c-3 -9 -3 -18 -1 -21 3 -3 8 4 11 16 6 23 -1 27 -10 5z"/>
<path d="M4144 1505 c-6 -19 -8 -35 -4 -35 4 0 10 8 13 18 2 9 8 25 12 35 4 9
3 17 -1 17 -5 0 -14 -16 -20 -35z"/>
<path d="M4316 1523 c-6 -14 -5 -15 5 -6 7 7 10 15 7 18 -3 3 -9 -2 -12 -12z"/>
<path d="M4356 1496 c-9 -14 -12 -27 -7 -31 16 -9 61 17 61 37 0 27 -35 23
-54 -6z"/>
<path d="M3947 1493 c-14 -14 -6 -32 28 -58 l36 -26 -6 32 c-9 49 -37 74 -58
52z m39 -40 c-7 -7 -26 7 -26 19 0 6 6 6 15 -2 9 -7 13 -15 11 -17z"/>
<path d="M4119 1448 c0 -7 -2 -22 -4 -33 -4 -20 -4 -20 11 -1 8 11 14 26 14
33 0 17 -20 17 -21 1z"/>
<path d="M4285 1405 c-25 -30 -43 -55 -38 -55 9 0 22 14 66 73 41 55 26 45
-28 -18z"/>
<path d="M4431 1439 c-33 -20 -34 -39 -2 -39 11 0 29 8 41 18 19 15 20 20 8
30 -11 9 -21 7 -47 -9z"/>
<path d="M3911 1398 c-5 -13 -12 -39 -16 -57 l-7 -35 31 34 c33 37 42 80 16
80 -9 0 -19 -10 -24 -22z m10 -31 c-10 -9 -11 -8 -5 6 3 10 9 15 12 12 3 -3 0
-11 -7 -18z"/>
<path d="M4090 1350 c-11 -22 -18 -40 -15 -40 2 0 14 18 25 40 11 22 18 40 15
40 -2 0 -14 -18 -25 -40z"/>
<path d="M3673 1335 c-3 -11 4 -27 21 -43 l26 -27 0 32 c0 38 -35 66 -47 38z"/>
<path d="M4175 1325 c-22 -14 -35 -25 -30 -25 6 0 20 7 32 15 12 9 27 14 34
13 6 -2 14 3 16 10 7 18 -7 14 -52 -13z"/>
<path d="M4260 1330 c0 -5 5 -10 11 -10 5 0 7 5 4 10 -3 6 -8 10 -11 10 -2 0
-4 -4 -4 -10z"/>
<path d="M3876 1283 c-6 -14 -5 -15 5 -6 7 7 10 15 7 18 -3 3 -9 -2 -12 -12z"/>
<path d="M3568 1248 c-3 -7 0 -31 7 -53 l12 -40 11 28 c8 18 8 35 2 52 -10 27
-25 33 -32 13z"/>
<path d="M3834 1188 c-10 -24 -21 -45 -25 -48 -7 -6 -29 -46 -29 -54 0 -3 9 2
20 11 11 10 20 22 20 27 0 5 10 29 21 53 12 24 19 46 17 49 -3 2 -13 -15 -24
-38z"/>
<path d="M3730 1215 c0 -5 5 -17 10 -25 5 -8 10 -10 10 -5 0 6 -5 17 -10 25
-5 8 -10 11 -10 5z"/>
<path d="M4158 1184 c-39 -20 -35 -33 8 -29 39 3 61 24 41 37 -16 10 -17 10
-49 -8z"/>
<path d="M3580 1131 c0 -6 4 -13 10 -16 6 -3 7 1 4 9 -7 18 -14 21 -14 7z"/>
<path d="M4010 1131 c0 -8 -6 -11 -16 -7 -9 3 -25 -1 -37 -9 -21 -15 -21 -16
11 -13 33 2 61 23 48 35 -3 3 -6 1 -6 -6z"/>
<path d="M3456 1122 c-2 -4 10 -20 28 -34 l33 -26 -16 34 c-14 32 -34 44 -45
26z"/>
<path d="M4028 1103 c7 -3 16 -2 19 1 4 3 -2 6 -13 5 -11 0 -14 -3 -6 -6z"/>
<path d="M4110 1099 c0 -6 7 -8 16 -5 8 3 12 2 9 -4 -3 -6 1 -10 9 -10 9 0 16
7 16 15 0 9 -9 15 -25 15 -14 0 -25 -5 -25 -11z"/>
<path d="M3759 1077 c-1 -4 -2 -11 -3 -17 0 -5 -9 -18 -18 -30 -25 -29 -8 -24
21 6 18 19 21 28 13 36 -7 7 -13 9 -13 5z"/>
<path d="M3930 1036 c0 -2 11 -11 25 -20 25 -17 25 -16 13 4 -11 17 -38 29
-38 16z"/>
<path d="M4120 1000 c0 -15 35 -29 49 -20 8 4 10 13 7 19 -9 14 -56 15 -56 1z"/>
<path d="M3990 997 c0 -2 6 -10 14 -16 11 -9 16 -9 22 1 4 7 4 10 -1 6 -4 -4
-14 -3 -22 3 -7 6 -13 9 -13 6z"/>
<path d="M4035 960 c-3 -5 -1 -10 4 -10 6 0 11 5 11 10 0 6 -2 10 -4 10 -3 0
-8 -4 -11 -10z"/>
<path d="M3873 946 c-40 -14 -52 -26 -27 -27 10 0 27 -2 36 -4 9 -2 24 2 33 9
28 20 -2 36 -42 22z"/>
<path d="M3747 869 c7 -7 15 -10 18 -7 3 3 -2 9 -12 12 -14 6 -15 5 -6 -5z"/>
<path d="M3810 833 c0 -5 5 -15 10 -23 7 -11 12 -12 21 -3 6 6 8 16 5 22 -8
12 -36 15 -36 4z"/>
<path d="M3721 813 c13 -15 49 -18 49 -3 0 6 -3 10 -7 11 -5 0 -18 2 -30 3
-18 2 -20 0 -12 -11z"/>
</g>
</svg>
